<svg width="15" height="19" viewBox="0 0 15 19" fill="none" xmlns="http://www.w3.org/2000/svg">
<path d="M1.72001 16.2001C1.72001 17.2561 2.58401 18.1201 3.64001 18.1201H11.32C12.376 18.1201 13.24 17.2561 13.24 16.2001V6.60009C13.24 5.54409 12.376 4.68009 11.32 4.68009H3.64001C2.58401 4.68009 1.72001 5.54409 1.72001 6.60009V16.2001ZM13.24 1.80009H10.84L10.1584 1.11849C9.98561 0.945688 9.73601 0.840088 9.48641 0.840088H5.47361C5.22401 0.840088 4.97441 0.945688 4.80161 1.11849L4.12001 1.80009H1.72001C1.19201 1.80009 0.76001 2.23209 0.76001 2.76009C0.76001 3.28809 1.19201 3.72009 1.72001 3.72009H13.24C13.768 3.72009 14.2 3.28809 14.2 2.76009C14.2 2.23209 13.768 1.80009 13.24 1.80009Z" fill="#B8B8B8"/>
</svg>
